<?xml version="1.0" encoding="utf-8"?>
<!-- Generator: Adobe Illustrator 16.0.0, SVG Export Plug-In . SVG Version: 6.00 Build 0)  -->
<!DOCTYPE svg PUBLIC "-//W3C//DTD SVG 1.1//EN" "http://www.w3.org/Graphics/SVG/1.1/DTD/svg11.dtd">
<svg version="1.1" id="Слой_2" xmlns="http://www.w3.org/2000/svg" xmlns:xlink="http://www.w3.org/1999/xlink" x="0px" y="0px"
	 width="500px" height="500px" viewBox="0 0 500 500" enable-background="new 0 0 500 500" xml:space="preserve">
<g>
	<path fill-rule="evenodd" clip-rule="evenodd" fill="#4B8691" d="M369.24,416.188c-12.408,8.282-25.687,15.089-38.54,22.614
		c-17.593,10.301-35.396,20.241-53.091,30.367c-16.384,9.376-33.538,10.222-49.993,1.664
		c-22.032-11.457-43.313-24.363-64.888-36.694c-28.616-16.354-57.259-32.662-85.786-49.17
		c-18.401-10.647-29.053-26.066-28.977-48.063C48.098,299.254,48,261.6,48.01,223.946c0-1.996,0.11-3.991,0.168-5.987
		c1.645-1.321,3.209-0.492,4.61,0.356c14.924,9.045,29.806,18.162,44.473,27.621c1.116,0.72,2.115,1.616,2.843,2.764
		c1.139,2.499,3.236,4.213,5.104,6.086c21.867,21.928,43.823,43.768,65.624,65.762c3.184,3.213,6.492,4.722,11.011,4.507
		c5.98-0.283,11.988,0.057,17.977-0.104c4.894-0.131,8.2,1.891,10.484,6.161c2.826,5.282,6.034,10.359,8.836,15.652
		c1.935,3.653,4.739,5.574,8.731,6.664c25.043,6.831,50.171,13.348,75.207,20.201c1.92,0.526,3.915,0.884,5.487,2.26
		c4.977,5.392,11.995,7.648,17.954,11.534c11.999,7.823,24.281,15.221,36.485,22.731C365.467,411.671,368.56,412.742,369.24,416.188
		z"/>
	<path fill-rule="evenodd" clip-rule="evenodd" fill="#7AADB6" d="M138.304,81.699c22.901-13.195,45.788-26.416,68.712-39.569
		c7.148-4.102,14.145-8.605,21.659-11.903c14.976-6.572,30.513-7.049,45.125,0.544c17.573,9.133,34.562,19.396,51.755,29.253
		c32.947,18.888,65.839,37.872,98.796,56.741c19.462,11.143,29.719,27.59,29.656,50.246c-0.101,36.65-0.12,73.299-0.174,109.949
		c-2.377,1.19-4.177-0.291-5.946-1.424c-31.039-19.887-62.466-39.152-93.808-58.555c-2.26-1.399-4.147-3.28-6.294-4.837
		c-2.716-4.509-3.402-9.697-4.751-14.639c-6.215-22.777-12.216-45.613-18.362-68.409c-1.563-5.796-1.853-5.929-7.614-4.386
		c-23.769,6.367-47.543,12.716-71.297,19.136c-2.712,0.733-5.388,1.831-8.301,1.133c-22.356-14.016-44.912-27.721-67.292-41.71
		c-9.156-5.723-18.393-11.314-27.505-17.107C140.88,85.027,138.727,84.189,138.304,81.699z"/>
	<path fill-rule="evenodd" clip-rule="evenodd" fill="#67A3AE" d="M349.408,211.975c17.942,11.054,35.924,22.047,53.817,33.18
		c16.917,10.525,33.742,21.197,50.607,31.804c0.032,21.162,0.759,42.353-0.109,63.478c-0.795,19.324-11.291,33.742-27.558,43.519
		c-18.136,10.899-36.731,21.032-55.134,31.486c-0.559,0.317-1.192,0.5-1.792,0.746c-19.509-12.018-39.021-24.028-58.517-36.068
		c-1.103-0.682-2.358-1.319-2.666-2.804c2.294-2.635,4.92-1.048,7.345-0.428c7.626,1.952,7.572,2.006,9.705-5.694
		c8.036-29.016,15.479-58.191,23.538-87.2c1.102-3.967,0.838-7.339-1.402-10.867c-3.208-5.053-5.987-10.377-9.127-15.479
		c-2.717-4.415-2.751-8.599-0.001-13.11c3.203-5.253,6.135-10.683,9.42-15.886c1.933-3.06,2.362-5.988,1.313-9.451
		C348.139,216.858,346.581,214.162,349.408,211.975z"/>
	<path fill-rule="evenodd" clip-rule="evenodd" fill="#67A3AE" d="M138.304,81.699c12.301,6.551,23.81,14.408,35.677,21.672
		c19.222,11.766,38.404,23.596,57.565,35.46c2.044,1.266,4.646,2.012,5.479,4.731c-0.799,3.357-3.861,3.518-6.3,3.986
		c-6.174,1.183-10.526,4.084-13.092,10.134c-2.001,4.718-5.128,8.952-7.573,13.498c-2.218,4.123-5.487,5.953-10.155,5.844
		c-5.828-0.136-11.68,0.251-17.489-0.112c-5.12-0.32-8.729,1.571-12.271,5.155c-20.964,21.212-42.092,42.263-63.238,63.295
		c-2.023,2.012-3.76,4.929-7.445,4.046c-15.789-9.785-31.574-19.576-47.373-29.345c-1.257-0.777-2.605-1.405-3.912-2.103
		c-0.049-19.995-0.889-40.029,0.096-59.973c0.82-16.6,10.129-29.667,23.889-38.196C93.776,106.394,116.215,94.328,138.304,81.699z"
		/>
	<path fill-rule="evenodd" clip-rule="evenodd" fill="#162E34" d="M99.463,249.407c12.414-12.259,24.855-24.489,37.233-36.784
		c11.677-11.599,23.333-23.221,34.885-34.943c1.924-1.953,3.877-2.755,6.576-2.698c7.813,0.165,15.633-0.003,23.444,0.206
		c2.868,0.077,4.527-0.864,5.881-3.414c3.346-6.301,7.195-12.339,10.418-18.698c1.727-3.405,3.997-5.39,7.68-6.213
		c3.87-0.865,7.858-1.416,11.444-3.301c14.242-3.667,28.495-7.292,42.722-11.015c13.45-3.521,26.939-6.919,40.268-10.859
		c4.092-1.209,5.083,0.052,6.004,3.543c7.3,27.683,14.726,55.333,22.13,82.989c0.341,1.273,0.836,2.505,1.26,3.756
		c4.076,9.377,1.792,17.782-4.532,25.111c-8.177,9.474-8.307,18.474,0.045,27.869c7.343,8.259,6.827,17.165,3.747,27.55
		c-8.209,27.675-15.183,55.719-22.505,83.653c-0.995,3.797-2.049,5.861-6.562,4.079c-3.662-1.446-7.683-1.982-11.544-2.922
		c-13.413-3.701-26.813-7.45-40.241-11.092c-14.425-3.911-28.861-7.776-43.329-11.523c-2.61-0.676-4.366-1.856-5.662-4.27
		c-3.304-6.15-7.021-12.083-10.227-18.281c-1.963-3.796-4.286-5.671-8.889-5.353c-6.959,0.481-13.977,0.039-20.963,0.229
		c-3.063,0.084-5.304-0.833-7.487-3.029c-23.232-23.375-46.556-46.659-69.852-69.97C100.137,252.755,98.449,251.646,99.463,249.407z
		"/>
	<path fill-rule="evenodd" clip-rule="evenodd" fill="#ECF3F5" d="M309.226,173.418c7.083,25.439,13.91,50.034,20.814,74.606
		c0.555,1.977,0.577,3.619-0.016,5.694c-6.798,23.803-13.395,47.663-20.027,71.514c-0.216,0.773-0.247,1.598-0.517,3.442
		c-3.681-6.137-7.021-11.534-10.195-17.027c-10.926-18.907-21.745-37.877-32.738-56.744c-1.595-2.736-1.749-4.77-0.072-7.637
		C280.664,223.01,294.66,198.641,309.226,173.418z"/>
	<path fill-rule="evenodd" clip-rule="evenodd" fill="#EBF3F5" d="M152.087,237.853c18.361-18.773,36.164-36.894,53.838-55.138
		c2.394-2.472,5.289-3.127,8.325-3.901c22.054-5.623,44.1-11.276,66.146-16.932c1.381-0.354,2.894-1.557,4,0.219
		c0.875,1.404-0.554,2.475-1.148,3.511c-13.276,23.113-26.657,46.166-39.891,69.304c-1.241,2.17-2.52,2.997-5.008,2.99
		C209.891,237.823,181.433,237.853,152.087,237.853z"/>
	<path fill-rule="evenodd" clip-rule="evenodd" fill="#EBF3F5" d="M152.066,264.16c29.626,0,58.234,0.063,86.841-0.086
		c3.202-0.018,3.818,2.159,4.899,4.014c10.998,18.864,21.942,37.761,32.86,56.672c2.937,5.086,5.732,10.252,9.306,16.66
		c-9.021-2.193-16.639-3.963-24.213-5.902c-16.446-4.21-32.864-8.531-49.311-12.741c-2.798-0.716-5.067-1.958-7.135-4.081
		c-16.941-17.387-33.994-34.666-51.007-51.984C153.748,266.144,153.252,265.516,152.066,264.16z"/>
</g>
</svg>
